<svg xmlns="http://www.w3.org/2000/svg" xmlns:xlink="http://www.w3.org/1999/xlink" version="1.1" width="256" height="256" viewBox="0 0 256 256" xml:space="preserve">

<defs>
</defs>
<g style="stroke: none; stroke-width: 0; stroke-dasharray: none; stroke-linecap: butt; stroke-linejoin: miter; stroke-miterlimit: 10; fill: none; fill-rule: nonzero; opacity: 1;" transform="translate(1.4065934065934016 1.4065934065934016) scale(2.81 2.81)" >
	<path d="M 84.259 16.068 H 5.741 C 2.57 16.068 0 18.638 0 21.809 v 6.131 v 2 V 60.06 v 2 v 6.131 c 0 3.171 2.57 5.741 5.741 5.741 h 78.518 c 3.171 0 5.741 -2.57 5.741 -5.741 V 62.06 v -2 V 29.94 v -2 v -6.131 C 90 18.638 87.43 16.068 84.259 16.068 z" style="stroke: none; stroke-width: 1; stroke-dasharray: none; stroke-linecap: butt; stroke-linejoin: miter; stroke-miterlimit: 10; fill: rgb(191,230,239); fill-rule: nonzero; opacity: 1;" transform=" matrix(1 0 0 1 0 0) " stroke-linecap="round" />
	<path d="M 4 68.191 V 62.06 v -2 V 29.94 v -2 v -6.131 c 0 -3.171 2.57 -5.741 5.741 -5.741 h -4 C 2.57 16.068 0 18.638 0 21.809 v 6.131 V 62.06 v 6.131 c 0 3.171 2.57 5.741 5.741 5.741 h 4 C 6.57 73.932 4 71.362 4 68.191 z" style="stroke: none; stroke-width: 1; stroke-dasharray: none; stroke-linecap: butt; stroke-linejoin: miter; stroke-miterlimit: 10; fill: rgb(175,214,223); fill-rule: nonzero; opacity: 1;" transform=" matrix(1 0 0 1 0 0) " stroke-linecap="round" />
	<path d="M 41.376 32.699 c -0.581 0 -1.076 0.423 -1.167 0.998 l -1.939 12.3 c 0.09 -0.574 0.585 -0.998 1.167 -0.998 h 5.683 c 5.719 0 10.573 -4.172 11.459 -9.826 c 0.066 -0.422 0.103 -0.848 0.112 -1.275 c -1.453 -0.762 -3.161 -1.198 -5.032 -1.198 L 41.376 32.699 z" style="stroke: none; stroke-width: 1; stroke-dasharray: none; stroke-linecap: butt; stroke-linejoin: miter; stroke-miterlimit: 10; fill: rgb(0,28,100); fill-rule: nonzero; opacity: 1;" transform=" matrix(1 0 0 1 0 0) " stroke-linecap="round" />
	<path d="M 56.691 33.898 c -0.009 0.427 -0.046 0.853 -0.112 1.275 c -0.887 5.654 -5.74 9.826 -11.459 9.826 h -5.683 c -0.581 0 -1.077 0.423 -1.167 0.998 L 36.487 57.3 L 35.37 64.39 c -0.083 0.523 0.273 1.014 0.796 1.098 c 0.05 0.008 0.101 0.012 0.151 0.012 h 6.168 c 0.581 0 1.076 -0.423 1.167 -0.998 l 1.625 -10.305 c 0.091 -0.575 0.586 -0.998 1.168 -0.998 h 3.632 c 5.719 0 10.573 -4.172 11.459 -9.826 C 62.166 39.36 60.145 35.709 56.691 33.898 L 56.691 33.898 z" style="stroke: none; stroke-width: 1; stroke-dasharray: none; stroke-linecap: butt; stroke-linejoin: miter; stroke-miterlimit: 10; fill: rgb(0,112,224); fill-rule: nonzero; opacity: 1;" transform=" matrix(1 0 0 1 0 0) " stroke-linecap="round" />
	<path d="M 34.369 24.5 c -0.581 0 -1.077 0.423 -1.167 0.997 l -4.84 30.693 c -0.092 0.583 0.358 1.11 0.948 1.11 h 7.178 l 1.782 -11.303 l 1.939 -12.3 c 0.091 -0.574 0.586 -0.997 1.167 -0.998 h 10.283 c 1.871 0 3.578 0.437 5.032 1.198 c 0.1 -5.148 -4.148 -9.398 -9.988 -9.398 H 34.369 z" style="stroke: none; stroke-width: 1; stroke-dasharray: none; stroke-linecap: butt; stroke-linejoin: miter; stroke-miterlimit: 10; fill: rgb(0,48,135); fill-rule: nonzero; opacity: 1;" transform=" matrix(1 0 0 1 0 0) " stroke-linecap="round" />
</g>
</svg>