<?xml version="1.0" encoding="utf-8"?>
<!-- Generator: Adobe Illustrator 24.1.1, SVG Export Plug-In . SVG Version: 6.00 Build 0)  -->
<svg version="1.1" id="Layer_1" xmlns="http://www.w3.org/2000/svg" xmlns:xlink="http://www.w3.org/1999/xlink" x="0px" y="0px"
	 viewBox="0 0 512 512" style="enable-background:new 0 0 512 512;" xml:space="preserve">
<style type="text/css">
	.st0{fill:#333333;}
</style>
<g id="XMLID_2_">
	<path id="XMLID_6_" class="st0" d="M426.4,354.7c0-2.8,0-4.7-0.9-5.6c-0.9-1.9-4.7-4.7-13-10.2c-7.4-4.7-17.7-10.2-29.8-16.8
		l-17.7-9.3c-0.9-0.9-2.8-1.9-6.5-4.7c-2.8-1.9-5.6-3.7-8.4-4.7c-0.9,0-3.7-0.9-5.6-0.9c-3.7,0-9.3,3.7-15.8,11.2
		s-13,14.9-18.6,21.4c-6.5,7.4-11.2,11.2-14.9,11.2c-1.9,0-3.7,0-5.6-0.9c-1.9-0.9-3.7-1.9-5.6-1.9c-0.9-0.9-2.8-1.9-5.6-2.8
		c-2.8-1.9-3.7-2.8-4.7-2.8c-22.3-12.1-41-26.1-56.8-41.9c-15.8-15.8-29.8-34.4-41.9-56.8c0-0.9-0.9-1.9-2.8-4.7
		c-1.9-2.8-2.8-4.7-2.8-5.6c-0.9-0.9-0.9-2.8-1.9-5.6c-0.9-2.8-0.9-3.7-0.9-5.6c0-2.8,1.9-6.5,6.5-11.2s9.3-8.4,14.9-13
		c5.6-4.7,10.2-8.4,14.9-13c4.7-4.7,6.5-8.4,6.5-12.1c0-1.9-0.9-4.7-1.9-7.4c-0.9-2.8-2.8-5.6-4.7-8.4c-1.9-2.8-3.7-5.6-4.7-6.5
		c-0.9-0.9-2.8-4.7-4.7-9.3c-2.8-4.7-5.6-10.2-8.4-14.9c-2.8-4.7-5.6-10.2-8.4-15.8c-2.8-5.6-5.6-10.2-8.4-14
		c-2.8-3.7-4.7-5.6-5.6-5.6c-0.9,0-2.8-0.9-5.6-0.9c-10.2,0-22.3,2.8-33.5,7.4c-10.2,4.7-19.5,14.9-27,31.7
		c-7.4,16.8-11.2,30.7-11.2,43.8c0,3.7,0,7.4,0.9,11.2c0.9,3.7,0.9,7.4,1.9,10.2c0.9,2.8,1.9,6.5,2.8,11.2c1.9,4.7,2.8,7.4,3.7,10.2
		c0.9,1.9,1.9,5.6,3.7,11.2s2.8,8.4,3.7,10.2c13,36.3,37.2,71.7,72.6,107.1c34.4,34.4,70.7,58.6,107.1,72.6c0.9,0,4.7,1.9,10.2,3.7
		c5.6,1.9,9.3,3.7,11.2,3.7c1.9,0.9,5.6,1.9,10.2,3.7c4.7,1.9,8.4,2.8,11.2,2.8c2.8,0.9,6.5,0.9,10.2,1.9c3.7,0.9,7.4,0.9,11.2,0.9
		c13,0,27-3.7,43.8-11.2c16.8-7.4,27-16.8,31.7-27C424.5,377,426.4,365.8,426.4,354.7z M512,95.9v320.2c0,26.1-9.3,49.3-27.9,68
		c-18.6,18.6-41,27.9-68,27.9H95.9c-26.1,0-49.3-9.3-68-27.9C9.3,465.5,0,443.1,0,416.1V95.9c0-26.1,9.3-49.3,27.9-68S68.9,0,95.9,0
		h320.2c26.1,0,49.3,9.3,68,27.9C502.7,46.5,512,69.8,512,95.9z"/>
</g>
</svg>
